<svg xmlns="http://www.w3.org/2000/svg" width="33" height="32.616" viewBox="0 0 33 32.616">
  <g id="bx-message-detail" transform="translate(-3 -3)">
    <path id="Path_2090" data-name="Path 2090" d="M32.7,3H6.3A3.3,3.3,0,0,0,3,6.3V26.1a3.3,3.3,0,0,0,3.3,3.3h4.95v6.216L21.607,29.4H32.7A3.3,3.3,0,0,0,36,26.1V6.3A3.3,3.3,0,0,0,32.7,3Zm0,23.1H20.694L14.55,29.784V26.1H6.3V6.3H32.7Z" transform="translate(0 0)" fill="#b83b6f"/>
    <path id="Path_2091" data-name="Path 2091" d="M10.5,10.5H27v3.3H10.5Zm0,6.6H22.05v3.3H10.5Z" transform="translate(0.75 0.75)" fill="#b83b6f"/>
  </g>
</svg>
