<svg xmlns="http://www.w3.org/2000/svg" width="36" height="27" viewBox="0 0 36 27">
  <g id="cash-stack" transform="translate(0 -4.5)">
    <path id="Path_2112" data-name="Path 2112" d="M31.5,6.75H2.25A2.25,2.25,0,0,1,4.5,4.5h27a2.25,2.25,0,0,1,2.25,2.25Z"/>
    <path id="Path_2113" data-name="Path 2113" d="M33.75,11.25H2.25v18h31.5ZM2.25,9A2.25,2.25,0,0,0,0,11.25v18A2.25,2.25,0,0,0,2.25,31.5h31.5A2.25,2.25,0,0,0,36,29.25v-18A2.25,2.25,0,0,0,33.75,9Z" fill-rule="evenodd"/>
    <path id="Path_2114" data-name="Path 2114" d="M29.25,11.25a4.5,4.5,0,0,0,4.5,4.5v-4.5Zm-22.5,0a4.5,4.5,0,0,1-4.5,4.5v-4.5Zm22.5,18a4.5,4.5,0,0,1,4.5-4.5v4.5Zm-22.5,0a4.5,4.5,0,0,0-4.5-4.5v4.5Zm15.75-9a4.5,4.5,0,1,1-4.5-4.5A4.5,4.5,0,0,1,22.5,20.25Z"/>
  </g>
</svg>
