<svg xmlns="http://www.w3.org/2000/svg" width="88" height="36" viewBox="0 0 88 36">
  <g id="Group_2620" data-name="Group 2620" transform="translate(-171 -373)">
    <path id="whatsapp" d="M30.375,5.417a16.91,16.91,0,0,1,5.208,12.458,16.91,16.91,0,0,1-5.208,12.458A17.17,17.17,0,0,1,17.833,35.5a17.113,17.113,0,0,1-8.417-2.167L0,35.75l2.5-9.083A17.511,17.511,0,0,1,.167,17.833,16.931,16.931,0,0,1,5.334,5.416,17.023,17.023,0,0,1,17.833.25,17.174,17.174,0,0,1,30.375,5.417ZM17.833,32.5A14.273,14.273,0,0,0,28.25,28.208a14.062,14.062,0,0,0,4.333-10.375A14.073,14.073,0,0,0,28.25,7.458,14.266,14.266,0,0,0,17.833,3.167,14.137,14.137,0,0,0,7.458,7.458,14.137,14.137,0,0,0,3.167,17.833a14.445,14.445,0,0,0,2.25,7.833l.333.5-1.5,5.417,5.583-1.417.5.25a14.418,14.418,0,0,0,7.5,2.083Zm8.083-11a2.614,2.614,0,0,1,.833.583q.333.5-.25,2.083a2.864,2.864,0,0,1-1.25,1.292,5.843,5.843,0,0,1-1.75.792,7.419,7.419,0,0,1-2.75-.167q-1.417-.5-2.5-.917-.667-.333-1.292-.708t-1.208-.75a10.865,10.865,0,0,1-1.083-.792q-.5-.417-.958-.833t-.875-.875q-.417-.459-.708-.792t-.583-.708q-.292-.375-.458-.583a3.889,3.889,0,0,1-.292-.417l-.125-.208a7.712,7.712,0,0,1-1.833-4.583,5.222,5.222,0,0,1,1.583-3.667,1.5,1.5,0,0,1,1.167-.583,3.515,3.515,0,0,1,.833.083,1.072,1.072,0,0,1,1,.75,7.131,7.131,0,0,1,.5,1.083l.583,1.458.25.708a.749.749,0,0,1,.083.75,2.7,2.7,0,0,1-.417.75l-.25.25-.25.292L13.749,16q-.5.5-.25.917A12.638,12.638,0,0,0,16,20a19.077,19.077,0,0,0,3.583,2.167.772.772,0,0,0,.917-.083q1-1.25,1.417-1.75a.756.756,0,0,1,1-.25Q23.416,20.333,25.916,21.5Z" transform="translate(171 372.75)" fill="#aa1050"/>
    <path id="facebook-rect" d="M6.573,0A6.559,6.559,0,0,0,0,6.573V29.426A6.559,6.559,0,0,0,6.573,36H18.959V21.926H15.238V16.859h3.721V12.53c0-3.4,2.2-6.524,7.264-6.524a30.691,30.691,0,0,1,3.567.2l-.119,4.732s-1.547-.015-3.234-.015c-1.827,0-2.119.842-2.119,2.239v3.7h5.5l-.24,5.067H24.318V36h5.109A6.559,6.559,0,0,0,36,29.427V6.573A6.559,6.559,0,0,0,29.427,0Z" transform="translate(223 373)" fill="#aa1050"/>
  </g>
</svg>
