<svg xmlns="http://www.w3.org/2000/svg" width="33" height="33.061" viewBox="0 0 33 33.061">
  <path id="gender" d="M32.546,16.514,27.868,31a4.2,4.2,0,0,1-1.29,1.435,3.336,3.336,0,0,1-1.871.629A3.363,3.363,0,0,1,22.9,32.4,3.3,3.3,0,0,1,21.676,31L17,16.514a4.206,4.206,0,0,1-.307-3,1.593,1.593,0,0,1,1.6-1.129H31.255a1.594,1.594,0,0,1,1.6,1.129A4.2,4.2,0,0,1,32.546,16.514ZM24.611,33.06h0ZM18.579,6.192A5.947,5.947,0,0,1,20.4,1.805a6.209,6.209,0,0,1,8.757,0,5.979,5.979,0,0,1,1.806,4.387,5.97,5.97,0,0,1-1.806,4.387,5.951,5.951,0,0,1-4.37,1.806A6.015,6.015,0,0,1,20.4,10.58,5.937,5.937,0,0,1,18.579,6.192ZM14.741,33.06h-13A1.572,1.572,0,0,1,.179,31.932a4.284,4.284,0,0,1,.275-3L6.13,12A6.312,6.312,0,0,1,3.179,9.741,5.9,5.9,0,0,1,2.033,6.192,5.947,5.947,0,0,1,3.855,1.805,6.006,6.006,0,0,1,8.242,0a6.006,6.006,0,0,1,4.387,1.806,5.947,5.947,0,0,1,1.822,4.387,5.908,5.908,0,0,1-1.177,3.6,6.245,6.245,0,0,1-3.016,2.242l5.774,16.9a4.129,4.129,0,0,1,.29,3,1.6,1.6,0,0,1-1.58,1.129Z" transform="translate(-0.014 0.001)" fill="#b83b6f"/>
</svg>
