<svg xmlns="http://www.w3.org/2000/svg" width="17.431" height="24.402" viewBox="0 0 17.431 24.402">
  <path id="Path_2138" data-name="Path 2138" d="M15.465,2.25A8.541,8.541,0,0,0,6.75,10.584c0,2.188,1,5.1,2.964,8.649a63.921,63.921,0,0,0,4.358,6.712,1.729,1.729,0,0,0,2.79,0,64.174,64.174,0,0,0,4.358-6.712c1.965-3.55,2.962-6.459,2.962-8.649A8.541,8.541,0,0,0,15.465,2.25Zm0,12.2a3.486,3.486,0,1,1,3.486-3.486A3.486,3.486,0,0,1,15.465,14.451Z" transform="translate(-6.75 -2.25)" fill="#aa1050"/>
</svg>
