<svg xmlns="http://www.w3.org/2000/svg" width="48.885" height="30.216" viewBox="0 0 48.885 30.216">
  <path id="bxl-mastercard" d="M26.122,36.133c.117.1.245.2.369.3a15.112,15.112,0,1,1-.007-25.171,3.319,3.319,0,0,0-.338.308,16.247,16.247,0,0,0-.024,24.562ZM36.792,8.741a15.023,15.023,0,0,0-8.358,2.52,3.475,3.475,0,0,1,.336.308A16.244,16.244,0,0,1,28.8,36.132c-.121.1-.248.2-.369.3A15.108,15.108,0,1,0,36.794,8.739Zm-9.334,3.24a15.105,15.105,0,0,0,0,23.742,15.1,15.1,0,0,0,0-23.742Z" transform="translate(-3.015 -8.736)" fill="#fff"/>
</svg>
