<?xml version="1.0" encoding="iso-8859-1"?>
<!-- Generator: Adobe Illustrator 19.0.0, SVG Export Plug-In . SVG Version: 6.00 Build 0)  -->
<svg version="1.1" id="Layer_1" xmlns="http://www.w3.org/2000/svg" xmlns:xlink="http://www.w3.org/1999/xlink" x="0px" y="0px"
	 viewBox="0 0 512 512" style="enable-background:new 0 0 512 512;" xml:space="preserve">
<path style="fill:#F4B2B0;" d="M189.224,380.012c-0.237,2.297-0.362,4.629-0.362,6.988v43.498c0,37.08,30.06,67.139,67.139,67.139
	s67.139-30.058,67.139-67.139V387c0-2.36-0.125-4.691-0.362-6.988H189.224z"/>
<g>
	<path style="fill:#B3404A;" d="M255.999,512c-44.94,0-81.502-36.562-81.502-81.502V387c0-2.804,0.148-5.653,0.44-8.467
		c0.758-7.321,6.927-12.884,14.287-12.884h133.552c7.36,0,13.529,5.563,14.287,12.884c0.292,2.814,0.44,5.662,0.44,8.467v43.498
		C337.503,475.438,300.941,512,255.999,512z M203.224,394.376v36.121c0,29.1,23.675,52.775,52.775,52.775
		s52.775-23.675,52.775-52.775v-36.121H203.224z"/>
	<path style="fill:#B3404A;" d="M295.214,97.771c-0.494,0-0.992-0.026-1.495-0.078c-7.891-0.816-13.625-7.874-12.809-15.767
		c0.091-0.878,0.136-1.762,0.136-2.624V53.773c0-13.81-11.235-25.047-25.045-25.047c-13.81,0-25.047,11.235-25.047,25.047v25.531
		c0,0.863,0.046,1.747,0.136,2.624c0.816,7.891-4.918,14.949-12.809,15.767c-7.897,0.82-14.949-4.919-15.765-12.809
		c-0.192-1.857-0.29-3.736-0.29-5.582V53.773C202.227,24.122,226.349,0,255.999,0s53.772,24.122,53.772,53.773v25.531
		c0,1.846-0.098,3.724-0.29,5.582C308.72,92.273,302.482,97.771,295.214,97.771z"/>
	<path style="fill:#B3404A;" d="M408.106,321.216c-7.933,0-14.363-6.432-14.363-14.363v-69.909
		c0-75.952-61.791-137.742-137.742-137.742s-137.742,61.791-137.742,137.742v69.909c0,7.931-6.43,14.363-14.363,14.363
		s-14.363-6.432-14.363-14.363v-69.909c0-91.79,74.678-166.468,166.468-166.468s166.468,74.678,166.468,166.468v69.909
		C422.469,314.784,416.039,321.216,408.106,321.216z"/>
</g>
<rect x="42.36" y="358.538" style="fill:#F4B2B0;" width="427.281" height="70.61"/>
<path style="fill:#B3404A;" d="M469.64,443.511H42.36c-7.933,0-14.363-6.432-14.363-14.363v-70.615
	c0-7.931,6.43-14.363,14.363-14.363H469.64c7.933,0,14.363,6.432,14.363,14.363v70.615
	C484.003,437.081,477.572,443.511,469.64,443.511z M56.724,414.785h398.553v-41.888H56.724V414.785z"/>
<g>
</g>
<g>
</g>
<g>
</g>
<g>
</g>
<g>
</g>
<g>
</g>
<g>
</g>
<g>
</g>
<g>
</g>
<g>
</g>
<g>
</g>
<g>
</g>
<g>
</g>
<g>
</g>
<g>
</g>
</svg>
