<svg xmlns="http://www.w3.org/2000/svg" width="36" height="22.608" viewBox="0 0 36 22.608">
  <path id="visa" d="M1.44,6.7A1.44,1.44,0,0,0,0,8.136V27.864A1.44,1.44,0,0,0,1.44,29.3H34.56A1.44,1.44,0,0,0,36,27.864V8.136A1.44,1.44,0,0,0,34.56,6.7H1.44ZM21.5,13.434a5.517,5.517,0,0,1,2.026.373l-.306,1.925-.2-.1a3.934,3.934,0,0,0-1.692-.341c-.885,0-1.294.4-1.294.764,0,.416.478.69,1.268,1.1,1.3.634,1.906,1.4,1.9,2.413-.018,1.844-1.56,3.035-3.935,3.035a6.732,6.732,0,0,1-2.518-.474l.317-1.989.291.142a4.466,4.466,0,0,0,2.127.466c.65,0,1.347-.272,1.352-.867,0-.389-.291-.666-1.171-1.1-.857-.425-1.994-1.137-1.981-2.413.013-1.727,1.586-2.932,3.819-2.932Zm-18.317.282H6.832a.947.947,0,0,1,1.025.71l.786,4.059v0L8.879,19.7,11.1,13.716h2.4L9.929,22.48l-2.394,0L5.629,15.41a6.4,6.4,0,0,1,2.658,2.252,6.336,6.336,0,0,0-.577-.981,7.925,7.925,0,0,0-1.15-1.114,8.527,8.527,0,0,0-3.4-1.677l.028-.174Zm11.26.01h2.343l-1.466,8.75H12.978l1.466-8.75Zm13.236,0h1.775l1.858,8.75H29.182s-.211-1-.28-1.312l-2.941,0c-.089.237-.484,1.315-.484,1.315h-2.41l3.41-8.023a1.138,1.138,0,0,1,1.2-.727Zm.174,2.353c-.115.325-.316.851-.3.828,0,0-.721,1.924-.91,2.423h1.9c-.092-.433-.529-2.5-.529-2.5l-.154-.747Z" transform="translate(0 -6.696)"/>
</svg>
