<svg xmlns="http://www.w3.org/2000/svg" width="20.25" height="36" viewBox="0 0 20.25 36">
  <g id="phone-portrait-outline" transform="translate(-7.875)">
    <path id="Path_2092" data-name="Path 2092" d="M12.375,1.125h11.25A3.375,3.375,0,0,1,27,4.5v27a3.375,3.375,0,0,1-3.375,3.375H12.375A3.375,3.375,0,0,1,9,31.5V4.5a3.375,3.375,0,0,1,3.375-3.375Z" fill="none" stroke="#b83b6f" stroke-linecap="round" stroke-linejoin="round" stroke-width="2.25"/>
    <path id="Path_2093" data-name="Path 2093" d="M12.375,1.125h1.688a.563.563,0,0,1,.563.563h0a1.125,1.125,0,0,0,1.125,1.125h4.5a1.125,1.125,0,0,0,1.125-1.125h0a.563.563,0,0,1,.563-.563h1.688" fill="none" stroke="#b83b6f" stroke-linecap="round" stroke-linejoin="round" stroke-width="2.25"/>
  </g>
</svg>
