<svg xmlns="http://www.w3.org/2000/svg" width="33" height="33" viewBox="0 0 33 33">
  <g id="profile" transform="translate(-1.5 -1.5)">
    <path id="Path_2088" data-name="Path 2088" d="M24,13.5a6,6,0,1,1-6-6A6,6,0,0,1,24,13.5Zm-3,0a3,3,0,1,1-3-3A3,3,0,0,1,21,13.5Z" fill="#b83b6f" fill-rule="evenodd"/>
    <path id="Path_2089" data-name="Path 2089" d="M18,1.5A16.5,16.5,0,1,0,34.5,18,16.5,16.5,0,0,0,18,1.5ZM4.5,18a13.446,13.446,0,0,0,2.862,8.313,13.5,13.5,0,0,1,21.374-.126A13.5,13.5,0,1,0,4.5,18ZM18,31.5a13.444,13.444,0,0,1-8.508-3.018,10.5,10.5,0,0,1,17.14-.1A13.446,13.446,0,0,1,18,31.5Z" fill="#b83b6f" fill-rule="evenodd"/>
  </g>
</svg>
