<svg id="profile" xmlns="http://www.w3.org/2000/svg" width="21.442" height="25" viewBox="0 0 21.442 25">
  <path id="Subtraction_4" data-name="Subtraction 4" d="M21.442,12.469H0v-3.9a10.6,10.6,0,0,1,1.158-4.8,10.922,10.922,0,0,1,3.1-3.7,8.723,8.723,0,0,0,6.425,2.815A8.715,8.715,0,0,0,17.166,0a10.686,10.686,0,0,1,3.112,3.643,10.3,10.3,0,0,1,1.164,4.782v4.043Z" transform="translate(0 12.531)" fill="#b1bbc9"/>
  <path id="Path_2078" data-name="Path 2078" d="M6.678,0a6.591,6.591,0,0,1,6.678,6.5A6.591,6.591,0,0,1,6.678,13,6.591,6.591,0,0,1,0,6.5,6.591,6.591,0,0,1,6.678,0Z" transform="translate(4.003)" fill="#b1bbc9"/>
</svg>
