<svg xmlns="http://www.w3.org/2000/svg" width="41.768" height="26.23" viewBox="0 0 41.768 26.23">
  <path id="visa" d="M1.671,6.7A1.671,1.671,0,0,0,0,8.367V31.255a1.671,1.671,0,0,0,1.671,1.671H40.1a1.671,1.671,0,0,0,1.671-1.671V8.367A1.671,1.671,0,0,0,40.1,6.7H1.671Zm23.275,7.817a6.4,6.4,0,0,1,2.351.433l-.355,2.233-.234-.118a4.565,4.565,0,0,0-1.963-.4c-1.027,0-1.5.458-1.5.886-.006.483.555.8,1.471,1.277,1.513.736,2.211,1.628,2.2,2.8-.021,2.139-1.81,3.521-4.565,3.521a7.811,7.811,0,0,1-2.921-.55l.368-2.308.338.165A5.182,5.182,0,0,0,22.6,23c.754,0,1.563-.316,1.569-1.006,0-.451-.338-.773-1.359-1.277-.994-.493-2.313-1.319-2.3-2.8.015-2,1.84-3.4,4.431-3.4Zm-21.252.327H7.927a1.1,1.1,0,0,1,1.189.824l.912,4.709v0l.274,1.411,2.571-6.946h2.78L11.52,25.009l-2.778,0L6.531,16.806a7.43,7.43,0,0,1,3.084,2.613,7.351,7.351,0,0,0-.669-1.138,9.194,9.194,0,0,0-1.334-1.292A9.894,9.894,0,0,0,3.66,15.043l.032-.2Zm13.064.012h2.718L17.776,25H15.057Zm15.357,0h2.059L36.33,25H33.857s-.245-1.166-.325-1.522l-3.412,0c-.1.275-.562,1.526-.562,1.526h-2.8L30.719,15.7a1.32,1.32,0,0,1,1.4-.843Zm.2,2.73c-.133.377-.367.987-.352.961,0,0-.837,2.232-1.056,2.811h2.2c-.107-.5-.614-2.9-.614-2.9l-.179-.867Z" transform="translate(0 -6.696)" fill="#fff"/>
</svg>
